<?xml version="1.0" encoding="utf-8"?>
<!-- Generator: Adobe Illustrator 24.1.0, SVG Export Plug-In . SVG Version: 6.00 Build 0)  -->
<svg version="1.1"
	 id="Слой_1" xmlns:cc="http://creativecommons.org/ns#" xmlns:dc="http://purl.org/dc/elements/1.1/" xmlns:rdf="http://www.w3.org/1999/02/22-rdf-syntax-ns#"
	 xmlns="http://www.w3.org/2000/svg" xmlns:xlink="http://www.w3.org/1999/xlink" x="0px" y="0px" viewBox="0 0 1601.2 305.03"
	 style="enable-background:new 0 0 1601.2 305.03;" xml:space="preserve">
<style type="text/css">
	.st0{fill:#82B541;}
	.st1{fill:#FFFFFF;}
</style>
<path class="st0" d="M206.07,31.53c-8.05-4.47-31.12-1.7-58.83,6.87c-48.49,33.15-89.42,81.98-92.28,160.4
	c-0.52,1.88-5.3-0.26-6.25-0.84c-13.1-25.1-18.28-51.53-7.35-89.65c2.04-3.39-4.62-7.57-5.82-6.38c-2.4,2.4-12.4,13.06-19.05,24.59
	c-32.94,57.14-11.4,130.35,46.23,162.39c57.61,32.09,130.37,11.39,162.45-46.24C262.29,176.16,227.83,43.69,206.07,31.53
	L206.07,31.53z"/>
<path class="st1" d="M412.3,63.46c-68.31,0-117.9,50.79-117.9,120.76c0,70.55,49.46,119.82,120.28,119.82
	c35.77,0,64.1-11.19,86.62-34.21c6.73-7.26,7.45-14.26,7.45-16.94c0-11.41-8.48-19.69-20.17-19.69c-5.89,0-10.82,2.23-16.47,7.45
	c-12.75,11.88-29.55,24.02-57.43,24.02c-38.77,0-70.29-29.1-72.28-66.48h154.29c16.78,0,24.93-7.84,24.93-23.97
	c0-4.75,0-8.18-0.96-14.94C512.35,99.28,471.85,63.47,412.3,63.46L412.3,63.46z M412.3,100.92c37.04,0,60.81,23.61,62.28,61.71
	H342.45C345.92,127.37,375.73,100.92,412.3,100.92L412.3,100.92z"/>
<path class="st1" d="M668.95,63.46c-31.03,0-61.76,17.84-73.76,42.63V90.77c0-23.73-18.39-24.93-22.07-24.93
	c-10.9,0-22.54,6.55-22.54,24.93v184.99c0,24.64,19.57,25.88,23.5,25.88s23.51-1.24,23.51-25.88v-99.17
	c0-43.15,24.45-73.29,59.46-73.29c33.91,0,50.39,22.25,50.39,68.03v104.42c0,24.64,19.58,25.88,23.51,25.88s23.5-1.24,23.5-25.88
	V156.58c0-45.01-22.46-93.11-85.48-93.11L668.95,63.46z"/>
<path class="st1" d="M967.09,65.85c-10.86,0-18.74,6.33-23.43,18.8l-64.3,161.7l-63.81-161.7c-5-12.65-12.81-18.8-23.91-18.8
	c-12.96,0-23.5,10.11-23.5,22.54c0,3.08,0.35,7.07,2.95,13.3l73.9,174.49c8.81,21.05,23.29,25.47,33.9,25.47
	c10.6,0,25.09-4.42,33.91-25.46l74.38-175.46c2.54-6.15,2.93-10.67,2.93-12.81C990.11,75.34,980.2,65.85,967.09,65.85L967.09,65.85z
	"/>
<path class="st1" d="M1103.71,63.46c-30.06,0-58.06,8.37-78.83,23.56c-7.04,4.86-10.47,10.92-10.47,18.54
	c0,10.5,8.01,18.72,18.26,18.72c4.43,0,9.4-1.76,13.95-4.95c17.85-11.9,34.63-17.45,52.79-17.45c34.75,0,54.7,17.67,54.7,48.49v5.11
	c-78.01,0.09-157.35,9.51-157.35,77.37c0,48.84,41.74,70.71,83.1,70.71c32.94,0,59.25-13.05,76.13-37.77v11.89
	c0,17.7,11.89,23.98,22.08,23.98c2.15,0,21.11-0.67,21.11-23.98V153.22c0-56.22-35.7-89.77-95.48-89.77L1103.71,63.46z
	 M1144.23,190.08h9.89v10.83c0,39.6-25.22,65.19-64.23,65.19c-10.59,0-45.15-2.46-45.15-34.2
	C1044.73,194.41,1101.51,190.08,1144.23,190.08z"/>
<path class="st1" d="M1321.61,108.55c20.56,0,21.6-16,21.6-19.21c0-9.51-5.68-19.69-21.6-19.69h-42.29V26.88
	c0-19.11-12.4-25.88-23.02-25.88c-3.92,0-23.5,1.24-23.5,25.88v203.11c0,46.87,23.12,71.65,66.87,71.65c11.32,0,22.35-2,29.56-5.36
	c8.27-4.13,13.01-10.91,13.01-18.61c0-10.86-7.88-18.74-18.74-18.74c-2.1,0-5.08,0.52-8.37,1.47c-4.02,1.01-6.75,1.4-9.74,1.4
	c-17.8,0-26.09-11.62-26.09-36.57V108.53h42.29V108.55z"/>
<path class="st1" d="M1477.01,63.46c-71.09,0-122.66,50.39-122.66,119.8c0,33.8,12.5,64.6,35.18,86.73
	c22.51,21.95,53.57,34.04,87.49,34.04c70.2,0,123.14-51.92,123.14-120.77C1600.16,113.85,1548.36,63.46,1477.01,63.46L1477.01,63.46
	z M1477.01,264.18c-48.75,0-74.24-40.71-74.24-80.93c0-55.26,38.48-80.43,74.24-80.43s74.24,25.17,74.24,80.43
	C1551.25,238.86,1512.77,264.18,1477.01,264.18z"/>
</svg>
